<svg id="wave" style="transform:rotate(180deg); transition: 0.3s" viewBox="0 0 1440 490" version="1.1" xmlns="http://www.w3.org/2000/svg"><defs><linearGradient id="sw-gradient-0" x1="0" x2="0" y1="1" y2="0"><stop stop-color="rgba(255, 255, 255, 1)" offset="0%"></stop><stop stop-color="rgba(255, 255, 255, 1)" offset="100%"></stop></linearGradient></defs><path style="transform:translate(0, 0px); opacity:1" fill="url(#sw-gradient-0)" d="M0,196L60,187.8C120,180,240,163,360,130.7C480,98,600,49,720,89.8C840,131,960,261,1080,285.8C1200,310,1320,229,1440,236.8C1560,245,1680,343,1800,351.2C1920,359,2040,278,2160,277.7C2280,278,2400,359,2520,400.2C2640,441,2760,441,2880,408.3C3000,376,3120,310,3240,253.2C3360,196,3480,147,3600,114.3C3720,82,3840,65,3960,98C4080,131,4200,212,4320,253.2C4440,294,4560,294,4680,302.2C4800,310,4920,327,5040,326.7C5160,327,5280,310,5400,294C5520,278,5640,261,5760,245C5880,229,6000,212,6120,179.7C6240,147,6360,98,6480,81.7C6600,65,6720,82,6840,98C6960,114,7080,131,7200,114.3C7320,98,7440,49,7560,89.8C7680,131,7800,261,7920,310.3C8040,359,8160,327,8280,326.7C8400,327,8520,359,8580,375.7L8640,392L8640,490L8580,490C8520,490,8400,490,8280,490C8160,490,8040,490,7920,490C7800,490,7680,490,7560,490C7440,490,7320,490,7200,490C7080,490,6960,490,6840,490C6720,490,6600,490,6480,490C6360,490,6240,490,6120,490C6000,490,5880,490,5760,490C5640,490,5520,490,5400,490C5280,490,5160,490,5040,490C4920,490,4800,490,4680,490C4560,490,4440,490,4320,490C4200,490,4080,490,3960,490C3840,490,3720,490,3600,490C3480,490,3360,490,3240,490C3120,490,3000,490,2880,490C2760,490,2640,490,2520,490C2400,490,2280,490,2160,490C2040,490,1920,490,1800,490C1680,490,1560,490,1440,490C1320,490,1200,490,1080,490C960,490,840,490,720,490C600,490,480,490,360,490C240,490,120,490,60,490L0,490Z"></path><defs><linearGradient id="sw-gradient-1" x1="0" x2="0" y1="1" y2="0"><stop stop-color="rgba(0, 15.548, 114.257, 1)" offset="0%"></stop><stop stop-color="rgba(0, 11.384, 166.623, 1)" offset="100%"></stop></linearGradient></defs><path style="transform:translate(0, 50px); opacity:0.9" fill="url(#sw-gradient-1)" d="M0,49L60,98C120,147,240,245,360,236.8C480,229,600,114,720,73.5C840,33,960,65,1080,114.3C1200,163,1320,229,1440,277.7C1560,327,1680,359,1800,326.7C1920,294,2040,196,2160,138.8C2280,82,2400,65,2520,89.8C2640,114,2760,180,2880,212.3C3000,245,3120,245,3240,212.3C3360,180,3480,114,3600,122.5C3720,131,3840,212,3960,253.2C4080,294,4200,294,4320,285.8C4440,278,4560,261,4680,212.3C4800,163,4920,82,5040,40.8C5160,0,5280,0,5400,16.3C5520,33,5640,65,5760,73.5C5880,82,6000,65,6120,122.5C6240,180,6360,310,6480,334.8C6600,359,6720,278,6840,220.5C6960,163,7080,131,7200,114.3C7320,98,7440,98,7560,122.5C7680,147,7800,196,7920,236.8C8040,278,8160,310,8280,285.8C8400,261,8520,180,8580,138.8L8640,98L8640,490L8580,490C8520,490,8400,490,8280,490C8160,490,8040,490,7920,490C7800,490,7680,490,7560,490C7440,490,7320,490,7200,490C7080,490,6960,490,6840,490C6720,490,6600,490,6480,490C6360,490,6240,490,6120,490C6000,490,5880,490,5760,490C5640,490,5520,490,5400,490C5280,490,5160,490,5040,490C4920,490,4800,490,4680,490C4560,490,4440,490,4320,490C4200,490,4080,490,3960,490C3840,490,3720,490,3600,490C3480,490,3360,490,3240,490C3120,490,3000,490,2880,490C2760,490,2640,490,2520,490C2400,490,2280,490,2160,490C2040,490,1920,490,1800,490C1680,490,1560,490,1440,490C1320,490,1200,490,1080,490C960,490,840,490,720,490C600,490,480,490,360,490C240,490,120,490,60,490L0,490Z"></path></svg>