<svg id="wave" style="transform:rotate(180deg); transition: 0.3s" viewBox="0 0 1440 490" version="1.1" xmlns="http://www.w3.org/2000/svg"><defs><linearGradient id="sw-gradient-0" x1="0" x2="0" y1="1" y2="0"><stop stop-color="rgba(255, 255, 255, 1)" offset="0%"></stop><stop stop-color="rgba(255, 255, 255, 1)" offset="100%"></stop></linearGradient></defs><path style="transform:translate(0, 0px); opacity:1" fill="url(#sw-gradient-0)" d="M0,392L240,383.8C480,376,960,359,1440,294C1920,229,2400,114,2880,98C3360,82,3840,163,4320,204.2C4800,245,5280,245,5760,228.7C6240,212,6720,180,7200,179.7C7680,180,8160,212,8640,236.8C9120,261,9600,278,10080,302.2C10560,327,11040,359,11520,326.7C12000,294,12480,196,12960,171.5C13440,147,13920,196,14400,253.2C14880,310,15360,376,15840,408.3C16320,441,16800,441,17280,416.5C17760,392,18240,343,18720,269.5C19200,196,19680,98,20160,122.5C20640,147,21120,294,21600,302.2C22080,310,22560,180,23040,179.7C23520,180,24000,310,24480,302.2C24960,294,25440,147,25920,81.7C26400,16,26880,33,27360,81.7C27840,131,28320,212,28800,261.3C29280,310,29760,327,30240,302.2C30720,278,31200,212,31680,220.5C32160,229,32640,310,33120,334.8C33600,359,34080,327,34320,310.3L34560,294L34560,490L34320,490C34080,490,33600,490,33120,490C32640,490,32160,490,31680,490C31200,490,30720,490,30240,490C29760,490,29280,490,28800,490C28320,490,27840,490,27360,490C26880,490,26400,490,25920,490C25440,490,24960,490,24480,490C24000,490,23520,490,23040,490C22560,490,22080,490,21600,490C21120,490,20640,490,20160,490C19680,490,19200,490,18720,490C18240,490,17760,490,17280,490C16800,490,16320,490,15840,490C15360,490,14880,490,14400,490C13920,490,13440,490,12960,490C12480,490,12000,490,11520,490C11040,490,10560,490,10080,490C9600,490,9120,490,8640,490C8160,490,7680,490,7200,490C6720,490,6240,490,5760,490C5280,490,4800,490,4320,490C3840,490,3360,490,2880,490C2400,490,1920,490,1440,490C960,490,480,490,240,490L0,490Z"></path><defs><linearGradient id="sw-gradient-1" x1="0" x2="0" y1="1" y2="0"><stop stop-color="rgba(4.869, 0, 146.132, 1)" offset="0%"></stop><stop stop-color="rgba(0, 7.023, 68.721, 1)" offset="100%"></stop></linearGradient></defs><path style="transform:translate(0, 50px); opacity:0.9" fill="url(#sw-gradient-1)" d="M0,196L240,236.8C480,278,960,359,1440,343C1920,327,2400,212,2880,187.8C3360,163,3840,229,4320,261.3C4800,294,5280,294,5760,318.5C6240,343,6720,392,7200,343C7680,294,8160,147,8640,73.5C9120,0,9600,0,10080,24.5C10560,49,11040,98,11520,147C12000,196,12480,245,12960,285.8C13440,327,13920,359,14400,334.8C14880,310,15360,229,15840,204.2C16320,180,16800,212,17280,228.7C17760,245,18240,245,18720,261.3C19200,278,19680,310,20160,294C20640,278,21120,212,21600,204.2C22080,196,22560,245,23040,277.7C23520,310,24000,327,24480,310.3C24960,294,25440,245,25920,204.2C26400,163,26880,131,27360,147C27840,163,28320,229,28800,228.7C29280,229,29760,163,30240,147C30720,131,31200,163,31680,171.5C32160,180,32640,163,33120,187.8C33600,212,34080,278,34320,310.3L34560,343L34560,490L34320,490C34080,490,33600,490,33120,490C32640,490,32160,490,31680,490C31200,490,30720,490,30240,490C29760,490,29280,490,28800,490C28320,490,27840,490,27360,490C26880,490,26400,490,25920,490C25440,490,24960,490,24480,490C24000,490,23520,490,23040,490C22560,490,22080,490,21600,490C21120,490,20640,490,20160,490C19680,490,19200,490,18720,490C18240,490,17760,490,17280,490C16800,490,16320,490,15840,490C15360,490,14880,490,14400,490C13920,490,13440,490,12960,490C12480,490,12000,490,11520,490C11040,490,10560,490,10080,490C9600,490,9120,490,8640,490C8160,490,7680,490,7200,490C6720,490,6240,490,5760,490C5280,490,4800,490,4320,490C3840,490,3360,490,2880,490C2400,490,1920,490,1440,490C960,490,480,490,240,490L0,490Z"></path></svg>